<svg width="312" height="312" viewBox="0 0 312 312" fill="none" xmlns="http://www.w3.org/2000/svg">
<path fill-rule="evenodd" clip-rule="evenodd" d="M223.011 23.6419C167.393 14.5212 173.063 105.82 99.059 93.3236C23.3653 80.5422 0.741937 170.707 23.3653 220.51C47.7999 274.301 204.26 303.218 260.235 263.565C323.234 218.936 327.365 40.7549 223.011 23.6419Z" fill="#D9E8FF"/>
<path fill-rule="evenodd" clip-rule="evenodd" d="M106.698 125.282C106.698 125.282 112.307 137.512 117.179 143.182C124.093 151.227 133.965 157.911 137.672 164.186C146.481 179.097 142.573 186.39 142.573 186.39C142.573 186.39 137.92 170.317 131.25 162.466C126.159 156.475 116.16 149.829 112.817 144.909C106.797 136.045 103.686 127.553 103.686 127.553L106.698 125.282Z" fill="white"/>
<path d="M175.949 255.458C152.951 256.532 129.968 257.957 107.012 259.732C104.068 260.023 101.891 260.066 102.007 260.379C99.9373 260.247 96.1961 259.121 94.0213 260.023C95.6596 260.403 98.7564 261.851 98.9404 263.522C77.2774 264.772 55.4943 263.929 33.9927 261.009C55.0453 262.444 76.1621 262.936 97.2587 262.484C94.54 260.66 91.0437 260.039 87.863 260.816C91.9629 258.833 96.7143 258.229 101.18 259.121C97.7726 255.31 95.5144 250.484 94.7712 245.425C98.1751 247.753 100.897 251.065 102.522 254.855C102.366 247.731 107.408 240.809 114.236 238.771C109.875 244.324 107.57 251.456 107.856 258.511C129.656 256.648 151.503 255.346 173.37 254.605C172.291 253.749 171.557 252.469 171.363 251.105C172.432 250.193 174.011 249.924 175.322 250.432C176.284 242.816 181.582 235.899 188.686 232.988C184.729 237.456 181.981 242.984 180.806 248.836C182.026 248.096 183.571 247.917 184.928 248.358C184.542 250.008 183.574 251.516 182.234 252.554C209.31 246.366 237.731 256.909 265.235 253.042C251.351 257.532 236.349 254.051 221.836 252.541C200.591 250.432 180.186 254.605 175.949 255.458Z" fill="white"/>
<path d="M233.239 90.7697C233.477 88.5037 235.429 86.8051 237.429 85.7149C241.048 83.7432 245.309 82.9737 249.389 83.5553C251.236 83.8186 252.645 82.0583 253.965 80.7393C257.391 77.3158 262.627 76.0659 267.405 76.8567C272.183 77.6476 276.513 80.2871 280 83.6481C283.487 87.0091 286.209 91.076 288.729 95.2126C289.257 96.0803 290.483 96.1033 291.498 96.0536C293.687 95.9462 295.991 96.0067 297.904 97.0777C299.817 98.1487 301.161 100.526 300.387 102.577C300.025 103.538 299.255 104.303 298.376 104.833C296.622 105.891 294.495 106.073 292.453 106.229C278.835 107.268 265.218 108.308 251.6 109.348C247.874 109.633 244.089 109.914 240.43 109.156C236.771 108.398 233.189 106.448 231.315 103.214C229.442 99.9809 229.755 95.375 232.629 92.9863C233.236 92.4817 233.157 91.5549 233.239 90.7697" fill="white"/>
<path d="M187.658 111.634C190.63 115.048 205.972 113.853 206.469 120.099C204.712 120.581 202.954 121.063 201.196 121.545C198.339 122.329 195.449 123.126 192.864 124.574C191.65 125.254 190.208 126.094 188.974 125.453C184.203 122.973 178.655 122.203 173.303 122.715C167.951 123.226 162.774 124.97 157.917 127.276C155.381 128.48 152.523 129.87 149.899 128.875C140.316 125.242 129.385 125.306 119.845 129.05C118.154 129.714 116.268 128.977 114.604 128.249C112.804 127.461 111.003 126.673 109.203 125.885C111.525 123.23 121.451 119.536 123.474 116.965C123.83 116.514 137.084 107.323 151.618 111.475C152.269 111.17 174.873 107.323 187.658 111.634Z" fill="white"/>
<path fill-rule="evenodd" clip-rule="evenodd" d="M128.251 155.038C119.824 147.028 110.094 138.92 107.825 127.517C111.99 138.215 121.239 145.916 129.351 154.039C137.464 162.162 145.147 172.294 144.646 183.762C157.91 180.867 171.655 180.188 185.14 181.763C186.522 175.538 190.545 170.297 193.703 164.757C201.529 151.022 204.175 135.033 206.69 119.427C207.326 115.481 202.495 113.142 198.622 112.155C194.754 111.17 190.886 110.184 187.018 109.198C179.748 107.346 172.217 105.481 164.823 106.747C159.823 107.604 154.885 109.882 149.884 109.029C141.925 107.671 133.48 109.391 126.685 113.753C123.269 115.946 120.233 118.788 116.504 120.393C108.656 123.769 101.744 129.291 96.7159 136.199C94.0892 122.611 98.5147 108.707 103.689 95.8716C109.472 81.5238 116.733 67.0068 129.177 57.8166C147.422 44.3425 171.209 46.9651 190.188 59.3837C209.167 71.8022 220.764 92.2806 224.512 114.65C224.948 117.252 225.257 120.068 224.032 122.404C222.807 124.74 222.345 126.092 220.348 124.369C218.645 122.899 216.833 121.375 214.625 120.952C212.416 120.529 209.736 121.677 209.308 123.885C206.172 140.054 202.878 156.633 194.165 170.609C191.896 174.248 189.253 177.723 187.81 181.763C186.706 184.853 186.35 188.152 186.002 191.416C185.277 198.216 184.552 205.016 183.827 211.815C183.522 214.682 183.096 217.803 181.008 219.79C179.014 221.688 176.047 222.029 173.305 222.272C164.401 223.063 155.497 223.854 146.593 224.645C145.001 224.786 143.195 224.859 142.032 223.762C141.136 222.917 140.888 221.608 140.712 220.389C139.461 211.738 139.461 202.907 140.713 194.256C142.508 181.844 136.954 169.146 128.205 160.16C123.646 155.478 118.269 151.65 113.717 146.96C109.165 142.27 105.355 136.376 105.082 129.846C108.18 138.428 113.887 146.049 121.252 151.435C132.258 159.484 140.1 171.746 142.789 185.114C144.903 173.681 136.679 163.048 128.251 155.038Z" fill="white"/>
<path fill-rule="evenodd" clip-rule="evenodd" d="M187.548 160.963C187.048 160.532 187.272 159.728 187.512 159.113C188.282 157.135 188.799 155.06 189.048 152.952C189.13 152.254 189.261 151.431 189.891 151.118C190.188 151.386 190.143 151.856 190.075 152.25C189.553 155.243 189.009 158.299 187.548 160.963Z" fill="#ECA718"/>
<path fill-rule="evenodd" clip-rule="evenodd" d="M105.477 181.163C104.141 180.431 103.649 178.788 103.298 177.306C101.575 170.035 100.316 162.654 99.53 155.223C99.4801 154.75 99.4571 154.205 99.8009 153.877C100.537 154.745 100.667 155.958 100.78 157.091C101.593 165.238 103.168 173.308 105.477 181.163Z" fill="#ECA718"/>
<path fill-rule="evenodd" clip-rule="evenodd" d="M211.385 156.393C212.596 152.346 213.488 148.203 214.052 144.016C214.128 143.45 214.341 142.736 214.912 142.693C215.245 142.984 215.213 143.502 215.15 143.939C214.613 147.672 213.848 151.373 212.858 155.012C212.658 155.751 212.096 156.678 211.385 156.393H211.385Z" fill="#ECA718"/>
<path fill-rule="evenodd" clip-rule="evenodd" d="M180.54 253.693C181.2 251.9 182.41 250.314 183.964 249.202C182.312 249.303 180.706 250.022 179.531 251.187C180.178 246.11 181.802 241.16 184.287 236.686C179.69 240.459 176.723 246.154 176.265 252.084C175.17 251.446 173.804 251.292 172.594 251.67C173.713 252.933 174.831 254.195 175.949 255.458C152.951 256.532 129.968 257.957 107.012 259.732C105.819 253.388 107.371 246.576 111.194 241.375C106.149 244.933 103.034 251.075 103.145 257.248C100.895 254.247 99.7747 249.961 96.3964 248.246C96.9942 251.187 97.6846 251.848 101.653 259.444C101.815 259.754 101.891 260.066 102.007 260.379C99.9373 260.247 96.1961 259.121 94.0213 260.023C95.6596 260.403 98.7564 261.851 98.9404 263.522C77.2774 264.772 55.4943 263.929 33.9927 261.009C55.0453 262.444 76.1621 262.936 97.2587 262.484C94.54 260.66 91.0437 260.039 87.863 260.816C91.9629 258.833 96.7143 258.229 101.18 259.121C97.7726 255.31 95.5144 250.484 94.7712 245.425C98.1751 247.753 100.897 251.065 102.522 254.855C102.366 247.731 107.408 240.809 114.236 238.771C109.875 244.324 107.57 251.456 107.856 258.511C129.656 256.648 151.503 255.346 173.37 254.605C172.291 253.749 171.557 252.469 171.363 251.105C172.432 250.193 174.011 249.924 175.322 250.432C176.284 242.816 181.582 235.899 188.686 232.988C184.729 237.456 181.981 242.984 180.806 248.836C182.026 248.096 183.571 247.917 184.928 248.358C184.542 250.008 183.574 251.516 182.234 252.554C209.31 246.366 237.731 256.909 265.235 253.042C251.351 257.532 236.349 254.051 221.836 252.541C208.1 251.111 194.175 251.5 180.54 253.693Z" fill="#00160A"/>
<path fill-rule="evenodd" clip-rule="evenodd" d="M192.731 154.695C193.063 155.184 192.959 155.836 192.825 156.411C192.021 159.863 190.604 163.172 188.66 166.136C188.119 165.461 188.616 164.485 189.072 163.75C190.283 161.795 191.173 159.641 191.696 157.401C191.917 156.451 192.096 155.436 192.731 154.695H192.731Z" fill="#ECA718"/>
<path fill-rule="evenodd" clip-rule="evenodd" d="M145.922 172.121C146.068 171.989 146.297 172.124 146.432 172.266C147.042 172.904 147.405 173.772 147.432 174.653C146.617 174.216 146.019 173.394 145.856 172.484C145.833 172.357 145.826 172.207 145.922 172.121L145.922 172.121Z" fill="#ECA718"/>
<path fill-rule="evenodd" clip-rule="evenodd" d="M210.057 145.387C209.84 149.231 208.962 153.037 207.474 156.588C207.435 156.679 207.394 156.774 207.318 156.839C207.097 157.03 206.725 156.825 206.646 156.544C206.566 156.263 206.679 155.968 206.786 155.697C207.836 153.039 208.533 150.243 208.852 147.403C208.947 146.559 209.213 145.486 210.057 145.387L210.057 145.387Z" fill="#ECA718"/>
<path fill-rule="evenodd" clip-rule="evenodd" d="M144.502 165.492C143.072 163.558 141.922 161.418 141.098 159.158C140.992 158.868 141.057 158.378 141.355 158.458C141.468 158.488 141.535 158.601 141.59 158.703C142.831 161.019 144.073 163.334 145.315 165.65C145.252 165.998 144.712 165.776 144.502 165.492H144.502Z" fill="#ECA718"/>
<path fill-rule="evenodd" clip-rule="evenodd" d="M103.78 125.309C103.123 124.969 103.097 124.053 103.176 123.317C104.646 109.601 111.323 96.5069 121.562 87.2628C121.798 89.003 120.455 90.5101 119.263 91.8004C110.78 100.99 105.28 112.893 103.78 125.309Z" fill="#00160A"/>
<path fill-rule="evenodd" clip-rule="evenodd" d="M189.854 125.296C190.041 120.792 189.288 115.836 187.658 111.634C190.63 115.048 190.753 120.016 190.722 124.543C195.463 121.723 200.953 120.174 206.469 120.099C204.712 120.581 202.954 121.063 201.196 121.545C198.339 122.329 195.449 123.126 192.864 124.574C191.65 125.254 190.208 126.094 188.974 125.453C184.203 122.973 178.655 122.203 173.303 122.715C167.951 123.226 162.774 125.386 157.917 127.692C155.381 128.896 152.523 130.286 149.899 129.291C140.316 125.658 129.385 125.305 119.845 129.05C118.154 129.714 116.268 128.977 114.604 128.249C112.804 127.461 111.003 126.673 109.203 125.885C111.296 126.325 116.493 128.194 116.493 128.194C116.493 128.194 117.99 128.375 118.461 127.8C118.932 127.225 119.081 126.461 119.251 125.737C119.998 122.553 121.451 119.535 123.474 116.965C123.83 116.514 124.591 116.092 124.875 116.592C122.074 119.838 120.207 123.88 119.55 128.117C129.758 124.267 141.405 124.389 151.53 128.451C152.497 122.849 152.527 117.087 151.618 111.475C152.269 111.17 152.747 112.14 152.811 112.857C153.278 118.075 153.194 123.343 152.561 128.544C158.417 125.716 164.489 123.16 170.91 122.128C177.331 121.097 184.184 122.112 189.854 125.296Z" fill="#00160A"/>
<path fill-rule="evenodd" clip-rule="evenodd" d="M115.431 114.114C118.492 105.354 123.264 97.1946 129.398 90.2316C129.848 89.7211 130.382 89.1788 131.062 89.1558C131.742 89.1327 132.381 90.0215 131.901 90.5039C124.843 97.5993 119.339 106.231 115.882 115.623C115.26 115.639 115.226 114.701 115.431 114.114H115.431Z" fill="#00160A"/>
<path fill-rule="evenodd" clip-rule="evenodd" d="M105.76 153.562C105.849 153.671 105.86 153.822 105.867 153.963C106.161 159.798 107.643 165.499 109.118 171.151C109.181 171.392 108.829 171.567 108.608 171.452C108.387 171.336 108.29 171.077 108.213 170.84C106.493 165.544 105.394 160.047 104.949 154.496C104.926 154.22 104.911 153.921 105.058 153.686C105.205 153.451 105.584 153.347 105.76 153.562H105.76Z" fill="#ECA718"/>
<path fill-rule="evenodd" clip-rule="evenodd" d="M151.849 106.185C151.235 106.211 151.034 105.376 151.043 104.761C151.136 98.3355 151.229 91.9098 151.322 85.4841C151.332 84.7746 151.525 83.8505 152.23 83.7725C152.857 84.5069 152.843 85.5747 152.797 86.5393C152.481 93.088 152.165 99.6366 151.849 106.185Z" fill="#00160A"/>
<path fill-rule="evenodd" clip-rule="evenodd" d="M211.014 116.019C212.376 113.809 212.284 111.027 212.055 108.441C211.653 103.911 210.963 99.4067 209.992 94.964C209.899 94.5382 209.843 94.0016 210.202 93.7537C210.498 93.5489 210.931 93.6904 211.163 93.9659C211.395 94.2414 211.477 94.6099 211.548 94.9631C212.662 100.486 213.17 106.131 213.058 111.765C213.017 113.859 212.674 116.317 210.835 117.321C210.481 116.999 210.764 116.427 211.014 116.019H211.014Z" fill="#00160A"/>
<path fill-rule="evenodd" clip-rule="evenodd" d="M189.448 101.132C189.91 103.186 189.714 105.383 188.895 107.323C188.333 106.719 188.491 105.771 188.588 104.952C188.966 101.769 187.852 98.5989 186.481 95.7013C185.111 92.8037 183.454 90.0059 182.631 86.9081C182.507 86.4421 182.526 85.7671 183.001 85.6847C183.402 85.6151 183.676 86.0692 183.825 86.4481C185.366 90.3501 186.906 94.2521 188.446 98.1541C188.831 99.1293 189.218 100.109 189.448 101.132Z" fill="#00160A"/>
<path fill-rule="evenodd" clip-rule="evenodd" d="M231.159 89.5217C231.397 87.2556 233.348 85.5571 235.349 84.4669C238.968 82.4951 243.229 81.7257 247.309 82.3072C249.156 82.5706 250.565 80.8103 251.885 79.4912C255.311 76.0677 260.547 74.8178 265.325 75.6087C270.103 76.3995 274.433 79.0391 277.92 82.4001C281.407 85.7611 284.129 89.828 286.649 93.9646C287.177 94.8323 288.403 94.8553 289.418 94.8055C291.607 94.6982 293.911 94.7587 295.824 95.8297C297.737 96.9007 299.081 99.2781 298.307 101.329C297.945 102.29 297.175 103.055 296.296 103.585C294.542 104.643 292.415 104.825 290.373 104.981C276.755 106.02 263.138 107.06 249.52 108.1C245.794 108.385 242.009 108.666 238.35 107.908C234.691 107.15 231.109 105.2 229.235 101.966C227.362 98.7329 227.675 94.127 230.549 91.7383C231.156 91.2336 231.077 90.3069 231.159 89.5217M236.318 85.1699C234.688 85.9468 233.061 87.0906 232.524 88.8147C232.333 89.4289 232.293 90.0814 232.116 90.6996C231.655 92.3031 230.328 93.5071 229.628 95.0214C228.169 98.1784 229.832 102.104 232.614 104.192C235.396 106.279 238.999 106.899 242.469 107.143C254.955 108.023 267.371 104.854 279.885 104.539C284.8 104.416 289.872 104.708 294.469 102.967C296.21 102.308 298.122 100.64 297.375 98.936C297.186 98.5054 296.847 98.16 296.49 97.8535C294.289 95.9604 291.136 95.2361 288.329 95.9787C286.898 96.3574 285.703 94.9054 284.919 93.6492C281.509 88.1836 277.647 82.7358 272.138 79.3968C266.629 76.0577 259.075 75.3275 253.95 79.2311C251.647 80.9853 249.505 83.7109 246.626 83.4055C243.115 83.0332 239.505 83.6512 236.318 85.1699Z" fill="#00160A"/>
<path fill-rule="evenodd" clip-rule="evenodd" d="M45.6159 69.1556C45.1565 70.5899 45.7357 72.1335 46.3636 73.5025C47.0934 75.0934 48.2929 76.8881 50.0398 76.7778C55.4343 76.4371 60.8288 76.0965 66.2233 75.7558C67.0049 75.7064 68.0801 75.9102 68.0848 76.6933C61.3201 77.2347 54.5555 77.7762 47.7908 78.3176C43.2404 78.6819 38.4824 79.1134 34.6403 81.5784C30.7981 84.0433 28.2937 89.2407 30.3662 93.3079C31.1515 94.849 32.6926 96.1374 34.4215 96.0859C39.0809 95.9471 43.7403 95.8084 48.3997 95.6696C49.4853 95.6373 50.971 95.9799 50.9224 97.0649C43.5177 96.6225 36.0693 96.9154 28.7222 97.9378C26.0844 98.3049 23.3711 98.7999 21.1591 100.283C18.9471 101.766 17.3577 104.489 17.977 107.079C18.4045 108.867 19.8049 110.303 21.4243 111.172C23.0437 112.042 24.8768 112.419 26.6896 112.723C45.9132 115.951 65.6344 112.176 85.0761 113.586C87.2513 113.743 89.6063 114.049 91.1557 115.584C74.3826 112.364 57.0851 115.957 40.0249 115.15C36.2276 114.97 32.4444 114.572 28.6637 114.174C25.5692 113.849 22.327 113.47 19.7742 111.691C18.5459 110.835 17.5163 109.653 17.0025 108.246C15.7296 104.763 17.9759 100.783 21.1411 98.8497C24.3063 96.9165 28.1472 96.5337 31.8409 96.1978C28.822 94.132 27.9245 89.7809 29.2306 86.3641C30.5367 82.9473 33.6432 80.456 37.048 79.1189C40.4528 77.7818 44.1624 77.4589 47.8163 77.2868C46.7388 75.8754 45.6451 74.435 45.0428 72.7646C44.4405 71.0942 44.3961 69.1267 45.3572 67.6336C46.0255 66.5952 47.0974 65.8924 48.167 65.2752C58.3985 59.3715 70.7664 58.6861 82.5754 58.9789C85.7842 59.0584 89.0978 59.2248 91.9836 60.6301C96.4604 62.8103 99.1816 67.8512 99.2087 72.8306C99.2358 77.81 96.8263 82.6146 93.2852 86.1154C92.7166 85.3274 93.4275 84.2798 94.0505 83.534C96.9353 80.0806 98.5744 75.4764 97.9607 71.0186C97.347 66.5609 94.2885 62.3913 90.0249 60.9526C88.2432 60.3514 86.3411 60.2244 84.4632 60.1287C72.2523 59.5066 59.4548 60.1456 48.7603 66.072C47.4437 66.8015 46.0751 67.7222 45.6159 69.1556Z" fill="#00160A"/>
<path fill-rule="evenodd" clip-rule="evenodd" d="M128.251 155.038C119.824 147.028 110.094 138.92 107.825 127.517C111.99 138.215 121.239 145.916 129.351 154.039C137.464 162.161 145.147 172.294 144.646 183.762C157.91 180.867 171.655 180.188 185.14 181.763C186.522 175.538 190.546 170.297 193.703 164.757C201.529 151.022 204.175 135.033 206.69 119.426C207.326 115.481 202.495 113.142 198.622 112.155C194.754 111.17 190.886 110.184 187.018 109.198C179.748 107.346 172.217 105.481 164.823 106.747C159.823 107.604 154.885 109.882 149.884 109.029C141.925 107.671 133.48 109.391 126.685 113.753C123.269 115.946 120.264 118.926 116.504 120.393C108.362 123.569 103.686 127.416 96.7159 136.198C94.0892 122.611 98.5147 108.707 103.689 95.8716C109.472 81.5237 116.733 67.0067 129.177 57.8166C147.422 44.3425 174.121 45.7171 193.1 58.1356C212.079 70.5541 223.676 92.2806 227.424 114.65C227.86 117.252 228.169 120.067 226.944 122.404C225.719 124.74 222.345 126.092 220.348 124.369C218.645 122.899 216.833 121.375 214.625 120.952C212.416 120.529 209.736 121.677 209.308 123.885C206.172 140.054 202.878 156.633 194.165 170.609C191.896 174.248 189.253 177.723 187.81 181.762C186.706 184.853 186.35 188.152 186.002 191.416C185.277 198.216 184.552 205.016 183.827 211.815C183.522 214.682 183.096 217.803 181.008 219.79C179.014 221.688 176.047 222.029 173.305 222.272C164.401 223.063 155.497 223.854 146.593 224.645C145.001 224.786 143.195 224.859 142.032 223.762C141.136 222.917 140.888 221.608 140.712 220.389C139.461 211.738 139.462 202.907 140.713 194.256C142.508 181.844 136.954 169.146 128.205 160.16C123.646 155.478 118.269 151.65 113.717 146.96C109.165 142.27 105.355 136.376 105.082 129.846C108.18 138.428 113.887 146.049 121.252 151.435C132.258 159.484 140.1 171.746 142.789 185.114C144.903 173.681 136.679 163.048 128.251 155.038ZM147.153 107.451C150.734 107.801 154.484 108.691 157.826 107.358C166.826 103.769 177.265 103.959 186.128 107.873C189.911 109.544 194.169 109.636 198.242 110.348C202.315 111.061 206.615 112.687 208.689 116.264C211.018 120.281 217.862 119.171 220.514 122.983C221.614 124.563 224.32 123.961 225.361 122.341C226.402 120.721 226.262 118.636 226.029 116.724C224.134 101.165 218.436 85.9088 208.602 73.7025C198.768 61.4962 184.661 52.5202 169.184 50.0385C153.707 47.5569 137.007 51.9437 125.552 62.6432C118.619 69.1191 113.81 77.5204 109.584 86.0148C102.225 100.809 96.2008 116.961 97.3895 133.442C102.329 127.465 107.695 121.194 115.103 118.905C116.872 118.359 118.81 118.008 120.153 116.733C127.27 109.974 137.385 106.497 147.153 107.451ZM155.069 209.424C155.042 213.397 155.637 217.374 156.827 221.165C156.928 221.489 157.054 221.838 157.341 222.017C157.621 222.191 157.978 222.158 158.305 222.119C162.287 221.643 166.268 221.167 170.25 220.691C170.396 220.673 170.559 220.646 170.646 220.528C170.737 220.405 170.709 220.235 170.677 220.086C169.961 216.717 169.244 213.349 168.527 209.981C168.487 209.792 168.441 209.592 168.307 209.451C168.143 209.279 167.888 209.239 167.652 209.209C163.741 208.714 159.79 208.529 155.85 208.658C155.619 208.666 155.361 208.687 155.21 208.861C155.08 209.01 155.071 209.226 155.069 209.424ZM167.705 195.384C167.574 195.205 167.326 195.17 167.105 195.15C163.091 194.795 159.04 194.853 155.038 195.324C154.806 195.351 154.56 195.385 154.381 195.534C154.087 195.779 154.085 196.222 154.107 196.603C154.241 198.871 154.374 201.138 154.508 203.405C154.54 203.959 154.756 204.69 155.31 204.662C159.235 204.465 163.178 204.609 167.078 205.091C167.615 205.158 167.822 204.417 167.821 203.876C167.816 201.205 167.812 198.533 167.807 195.861C167.807 195.696 167.803 195.518 167.705 195.384ZM142.821 210.789C142.518 210.926 142.208 211.08 142.002 211.342C141.675 211.759 141.689 212.34 141.719 212.868C141.821 214.724 141.924 216.58 142.027 218.435C142.079 219.375 142.134 220.329 142.453 221.214C142.771 222.099 143.396 222.921 144.278 223.248C145.004 223.518 145.808 223.427 146.577 223.333C148.033 223.154 149.488 222.975 150.944 222.796C151.542 222.723 152.161 222.642 152.672 222.324C151.308 218.181 150.401 213.887 149.974 209.546C149.944 209.242 149.535 209.171 149.231 209.19C147.021 209.329 144.837 209.874 142.821 210.789ZM181.985 205.819C182.416 203.156 182.847 200.492 183.278 197.829C183.315 197.595 183.347 197.334 183.21 197.142C183.071 196.946 182.809 196.893 182.572 196.855C179.416 196.348 176.253 195.891 173.083 195.483C172.845 195.452 172.556 195.443 172.419 195.64C172.337 195.757 172.34 195.912 172.346 196.055C172.461 198.831 172.575 201.608 172.69 204.385C172.7 204.639 172.724 204.922 172.914 205.091C173.048 205.21 173.235 205.243 173.412 205.271C176.073 205.701 178.734 206.131 181.395 206.56C181.743 206.617 181.928 206.168 181.985 205.819ZM154.322 190.107C154.265 190.413 154.245 190.806 154.519 190.957C154.65 191.029 154.809 191.017 154.958 191.002C159.131 190.602 163.303 190.201 167.476 189.8C167.691 189.779 167.919 189.754 168.092 189.625C168.328 189.45 168.401 189.133 168.457 188.844C168.797 187.084 169.137 185.324 169.477 183.564C169.525 183.314 169.555 183.009 169.356 182.85C169.217 182.738 169.021 182.748 168.843 182.762C164.843 183.097 160.843 183.432 156.843 183.767C156.516 183.794 156.175 183.826 155.899 184.003C155.431 184.301 155.29 184.908 155.188 185.453C154.899 187.004 154.611 188.555 154.322 190.107ZM173.122 184.318C172.966 185.844 172.809 187.37 172.653 188.895C172.627 189.147 172.605 189.416 172.727 189.637C172.908 189.963 173.325 190.058 173.693 190.12C177.041 190.684 180.389 191.248 183.737 191.812C183.876 191.836 184.024 191.858 184.154 191.802C184.4 191.697 184.455 191.377 184.473 191.109C184.606 189.14 184.636 187.164 184.563 185.192C184.55 184.853 184.532 184.504 184.394 184.193C183.974 183.251 182.725 183.094 181.694 183.073C179.277 183.024 176.86 182.975 174.443 182.926C174.192 182.92 173.929 182.918 173.708 183.034C173.272 183.262 173.172 183.829 173.122 184.318ZM208.766 119.419C207.038 121.671 206.564 124.612 206.126 127.416C203.906 141.603 201.028 156.118 193.221 168.17C190.547 172.299 187.214 176.375 186.836 181.28C188.309 176.174 192.387 172.31 195.186 167.793C197.24 164.479 198.611 160.793 199.866 157.102C202.897 148.192 205.336 139.081 207.164 129.848C207.821 126.529 208.469 123.038 210.606 120.415C209.88 120.407 209.169 120.022 208.766 119.419ZM148.864 205.191C149.096 205.131 149.344 205.06 149.495 204.873C149.657 204.673 149.664 204.394 149.664 204.137C149.661 201.689 149.658 199.24 149.655 196.792C149.655 196.616 149.649 196.424 149.538 196.288C149.377 196.092 149.081 196.099 148.829 196.127C146.886 196.339 144.962 196.721 143.086 197.268C142.866 197.332 142.635 197.405 142.479 197.573C142.299 197.766 142.253 198.044 142.217 198.305C141.853 200.948 141.707 203.622 141.782 206.289C141.789 206.506 141.82 206.764 142.013 206.864C142.147 206.934 142.309 206.897 142.454 206.859C144.591 206.303 146.727 205.747 148.864 205.191ZM180.154 218.38C181.569 216.679 181.581 214.252 181.523 212.041C181.512 211.61 181.005 211.397 180.587 211.294C178.351 210.742 176.08 210.335 173.792 210.075C173.592 210.053 173.372 210.035 173.206 210.148C172.951 210.321 172.953 210.69 172.986 210.996C173.296 213.852 173.889 216.676 174.754 219.416C174.854 219.734 174.986 220.084 175.287 220.227C175.45 220.304 175.636 220.306 175.816 220.301C177.445 220.254 179.112 219.633 180.154 218.38ZM145.968 185.448C145.413 185.607 144.846 185.795 144.408 186.173C143.993 186.532 143.729 187.034 143.523 187.543C142.87 189.16 142.721 190.929 142.58 192.667C142.569 192.8 142.562 192.946 142.643 193.052C142.765 193.21 143.005 193.189 143.202 193.152C144.895 192.835 146.589 192.518 148.282 192.2C148.764 192.11 149.298 191.987 149.572 191.579C149.758 191.303 149.781 190.951 149.798 190.618C149.902 188.617 150.005 186.616 150.109 184.616C148.709 184.78 147.323 185.058 145.968 185.448ZM155.475 194.015C159.173 193.614 162.909 193.565 166.617 193.868C167.037 193.902 167.499 193.93 167.84 193.681C168.373 193.291 168.301 192.488 168.174 191.839C168.14 191.67 168.102 191.491 167.984 191.366C167.795 191.166 167.48 191.174 167.206 191.197C163.505 191.508 159.804 191.818 156.103 192.128C155.592 192.171 155.047 192.227 154.651 192.552C154.254 192.877 154.126 193.573 154.534 193.882C154.793 194.078 155.152 194.05 155.475 194.015ZM183.652 193.72C183.208 193.266 182.538 193.132 181.912 193.021C179.142 192.529 176.373 192.037 173.603 191.545C173.242 191.481 172.798 191.447 172.58 191.743C172.485 191.872 172.459 192.037 172.435 192.195C172.318 192.983 172.415 194.08 173.204 194.185C176.353 194.599 179.501 195.014 182.65 195.429C182.962 195.47 183.297 195.508 183.576 195.361C184.139 195.066 184.097 194.175 183.652 193.72ZM151.745 209.346C151.557 209.861 151.651 210.431 151.749 210.971C152.346 214.271 152.994 217.562 153.736 220.832C153.836 221.272 153.947 221.731 154.24 222.075C154.533 222.419 155.067 222.603 155.449 222.361C156.022 221.998 155.81 221.129 155.564 220.497C154.29 217.23 153.928 213.684 153.752 210.181C153.721 209.566 153.603 208.816 153.025 208.604C152.51 208.415 151.933 208.831 151.745 209.346ZM181.251 209.955C181.922 209.699 181.458 208.555 181.937 208.021C179.153 207.326 176.314 206.85 173.456 206.598C172.782 206.538 172.469 207.554 172.871 208.099C173.272 208.644 174.006 208.799 174.673 208.915C175.274 209.018 175.875 209.122 176.476 209.226C177.888 209.47 179.299 209.714 180.71 209.958C180.89 209.99 181.08 210.02 181.251 209.955ZM156.131 207.452C159.587 207.249 163.061 207.379 166.492 207.839C167.177 207.931 168.128 207.85 168.22 207.165C168.315 206.456 167.359 206.145 166.645 206.109C163.173 205.936 159.694 205.912 156.22 206.037C155.605 206.059 154.761 206.371 154.923 206.965C155.048 207.42 155.66 207.48 156.131 207.452ZM169.398 195.803C169.236 196.142 169.231 196.531 169.23 196.906C169.222 199.023 169.215 201.139 169.207 203.255C169.205 203.724 169.207 204.211 169.405 204.637C169.602 205.063 170.054 205.41 170.516 205.328C171.283 205.193 171.425 204.166 171.382 203.388C171.259 201.137 171.136 198.885 171.013 196.634C170.983 196.08 170.839 195.384 170.296 195.271C169.928 195.194 169.56 195.465 169.398 195.803ZM171.759 210.446C171.605 210.004 171.25 209.595 170.786 209.531C170.322 209.467 169.809 209.884 169.899 210.344C170.443 213.147 170.987 215.949 171.531 218.752C171.659 219.408 171.834 220.138 172.401 220.494C172.967 220.849 173.951 220.373 173.739 219.738C172.88 217.166 172.014 214.548 171.922 211.837C171.907 211.369 171.912 210.889 171.759 210.446ZM152.819 204.468C153.072 204.016 153.052 203.468 153.025 202.951C152.931 201.149 152.837 199.346 152.743 197.543C152.714 196.983 152.665 196.374 152.286 195.961C151.907 195.548 151.077 195.544 150.895 196.074C150.846 196.215 150.851 196.368 150.856 196.517C150.942 198.929 151.028 201.341 151.114 203.753C151.129 204.171 151.175 204.649 151.514 204.894C151.933 205.197 152.566 204.919 152.819 204.468ZM151.522 184.74C151.043 185.402 151.022 186.279 151.019 187.096C151.015 188.222 151.01 189.348 151.006 190.474C151.004 191.078 151.225 191.902 151.826 191.843C152.296 191.798 152.484 191.223 152.562 190.758C152.913 188.667 153.264 186.577 153.615 184.486C153.123 183.834 152.001 184.078 151.522 184.74ZM148.227 208.225C148.721 208.181 149.272 208.138 149.606 207.771C149.94 207.404 149.732 206.62 149.24 206.688C147.721 206.896 146.203 207.104 144.685 207.312C143.897 207.42 143.062 207.549 142.462 208.07C141.862 208.592 141.663 209.651 142.277 210.156C144.082 209.077 146.132 208.412 148.227 208.225ZM142.692 194.63C142.238 195.062 142.157 195.931 142.693 196.255C144.432 195.675 146.232 195.281 148.054 195.082C148.502 195.033 148.979 194.986 149.338 194.713C149.698 194.44 149.856 193.85 149.531 193.537C149.274 193.29 148.866 193.327 148.514 193.379C147.152 193.584 145.789 193.788 144.427 193.992C143.807 194.085 143.145 194.198 142.692 194.63ZM171.09 182.996C170.93 183.167 170.881 183.412 170.839 183.642C170.52 185.402 170.2 187.162 169.88 188.921C169.822 189.239 169.786 189.624 170.034 189.831C170.288 190.043 170.701 189.912 170.901 189.65C171.101 189.387 171.145 189.041 171.182 188.713C171.38 186.949 171.578 185.185 171.777 183.421C171.794 183.262 171.807 183.085 171.708 182.96C171.563 182.776 171.251 182.825 171.09 182.996ZM170.492 206.302C169.827 206.221 169.181 207.072 169.596 207.598C169.887 207.967 170.227 208.343 170.685 208.443C171.144 208.543 171.713 208.209 171.669 207.742C171.607 207.075 171.158 206.384 170.492 206.302ZM170.756 192.794C170.98 192.254 171.034 191.392 170.454 191.324C170.227 191.298 170.012 191.437 169.857 191.604C169.134 192.38 169.508 193.862 170.512 194.203C170.834 193.831 170.947 193.29 170.801 192.821C170.642 192.307 170.549 193.29 170.756 192.794ZM152.783 193.781C152.647 193.284 152.235 192.817 151.72 192.812C151.053 192.806 150.616 193.753 151.055 194.256C151.493 194.759 152.491 194.456 152.576 193.794C152.651 193.208 152.938 194.351 152.783 193.781ZM153.19 207.433C153.348 207.298 153.462 207.112 153.509 206.909C153.07 206.419 152.3 206.26 151.702 206.536C151.57 206.598 151.442 206.682 151.367 206.807C151.151 207.165 151.508 207.646 151.92 207.714C152.332 207.782 152.736 207.581 153.105 207.387L153.19 207.433Z" fill="#00160A"/>
</svg>
